<svg xmlns="http://www.w3.org/2000/svg" xmlns:xlink="http://www.w3.org/1999/xlink" width="30" height="30" viewBox="0 0 30 30">
    <defs>
        <path id="a" d="M12 4c4.425 0 7.975 3.625 7.975 8A7.949 7.949 0 0 1 12 19.975c-4.425 0-8-3.55-8-7.975 0-4.375 3.575-8 8-8zm0 2.025A5.943 5.943 0 0 0 6.025 12c0 3.3 2.65 6 5.975 6 3.3 0 6-2.7 6-6 0-3.325-2.7-5.975-6-5.975zM20.025 18L26 23.975 23.975 26 18 20.025V19l1-1h1.025z"/>
    </defs>
    <g fill="none" fill-rule="evenodd">
        <mask id="b" fill="#fff">
            <use xlink:href="#a"/>
        </mask>
        <use fill="#fff" xlink:href="#a"/>
        <g fill="#fff" mask="url(#b)">
            <path d="M0 0h30v30H0z"/>
        </g>
    </g>
</svg>
